<svg width="30" height="30" viewBox="0 0 30 30" fill="none" xmlns="http://www.w3.org/2000/svg">
<path d="M22.3913 6.28667L15 13.6779L7.60877 6.28667C7.431 6.12399 7.19732 6.03617 6.95641 6.04151C6.7155 6.04685 6.48594 6.14493 6.31555 6.31532C6.14516 6.48571 6.04708 6.71527 6.04174 6.95618C6.0364 7.19709 6.12422 7.43077 6.28689 7.60854L13.6744 14.9998L6.28502 22.3892C6.19474 22.4752 6.12258 22.5784 6.07276 22.6927C6.02295 22.8071 5.99649 22.9302 5.99494 23.0549C5.9934 23.1796 6.0168 23.3033 6.06377 23.4189C6.11074 23.5344 6.18032 23.6394 6.26844 23.7276C6.35656 23.8158 6.46143 23.8856 6.57689 23.9327C6.69235 23.9798 6.81606 24.0034 6.94076 24.002C7.06546 24.0007 7.18863 23.9744 7.30302 23.9247C7.41742 23.8751 7.52073 23.8031 7.60689 23.7129L15 16.3235L22.3913 23.7148C22.569 23.8775 22.8027 23.9653 23.0436 23.9599C23.2845 23.9546 23.5141 23.8565 23.6845 23.6861C23.8549 23.5157 23.953 23.2862 23.9583 23.0453C23.9636 22.8044 23.8758 22.5707 23.7131 22.3929L16.3219 15.0017L23.7131 7.60854C23.8034 7.52251 23.8756 7.41929 23.9254 7.30497C23.9752 7.19064 24.0017 7.06751 24.0032 6.94282C24.0048 6.81812 23.9814 6.69437 23.9344 6.57885C23.8874 6.46332 23.8178 6.35836 23.7297 6.27011C23.6416 6.18187 23.5367 6.11213 23.4213 6.065C23.3058 6.01787 23.1821 5.99429 23.0574 5.99566C22.9327 5.99703 22.8095 6.02331 22.6951 6.07296C22.5807 6.12262 22.4774 6.19464 22.3913 6.28479V6.28667Z" fill="#FFBE2E"/>
</svg>
